<svg xmlns="http://www.w3.org/2000/svg" width="278" height="28" viewBox="0 0 278 28"><path fill="#464646" d="M52.3 10.9l-.7-1.7-.7 1.7m16.9-.7c-.1.1-.3.1-.5.1H66v-1h1.3c.2 0 .4 0 .5.1.1.1.2.2.2.4s-.1.4-.2.4m8.8.7l-.7-1.7-.7 1.7h1.4zm-16.5 1.9h-1V9.4l-1.5 3.4h-.9l-1.5-3.4v3.4h-2.1l-.4-1h-2.1l-.4 1h-1.1l1.8-4.3h1.5l1.7 4.1V8.5h1.7l1.3 2.9 1.2-2.9H60l.1 4.3zm4.2 0h-3.4V8.5h3.4v.9h-2.4v.8h2.3v.8h-2.3v.9h2.4v.9zm4.8-3.2c0 .7-.5 1-.7 1.2.2.1.4.2.5.4s.2.4.2.8v.9h-1v-.5c0-.3 0-.6-.2-.8-.1-.2-.4-.2-.7-.2H66V13h-1V8.5h2.4c.5 0 .9 0 1.2.2.3.2.5.4.5.9m1.6 3.2h-1V8.5h1v4.3zm12.1 0h-1.4l-1.9-3.3v3.3h-2.1l-.4-1h-2.1l-.4 1h-1.2c-.5 0-1.1-.1-1.5-.5s-.5-.9-.5-1.7c0-.6.1-1.2.6-1.7.3-.3.8-.5 1.6-.5h1v.9h-1c-.4 0-.6.1-.8.3-.2.2-.3.5-.3 1s.1.8.3 1c.2.2.4.2.7.2h.5l1.4-3.4h1.5l1.7 4.1v-4H80l1.8 3v-3h1v4.3zm-33.8.8h1.7l.4-1h.9l.4 1h3.4v-.7l.3.7H58l.3-.8v.7h8.5v-1.6h.2c.1 0 .1 0 .1.2v1.4h4.4v-.4c.4.2.9.4 1.6.4H75l.4-1h.9l.4 1h3.6v-.9l.5.9h2.9V7.6h-2.8v.7l-.4-.7h-2.9v.7l-.4-.7h-3.9c-.7 0-1.2.1-1.7.4v-.4h-2.7V8c-.3-.3-.7-.4-1.2-.4h-9.9l-.7 1.6-.7-1.6h-3.1v.7l-.3-.7h-2.7L49 10.5l-1.4 3.2 1.4-.1zM86.1 17.7V15H83.5c-.6 0-1 .1-1.3.4V15h-2.8c-.4 0-1 .1-1.2.4V15h-5v.4c-.4-.4-1.1-.4-1.4-.4h-3.3v.4c-.3-.3-1-.4-1.4-.4h-3.7l-.8.9-.9-.9h-5.5v6h5.4l.9-.9.8.9h3.3v-1.4h.4c.4 0 1 0 1.4-.2V21h2.8v-1.6h.1c.2 0 .2 0 .2.2V21h8.4c.5 0 1.1-.1 1.4-.4v.4H84c.6 0 1.1-.1 1.5-.3.6-.4 1-1.1 1-1.8-.1-.4-.2-.8-.4-1.2zm-19.1 1h-1.3v1.5h-2l-1.3-1.4-1.3 1.4H57v-4.3h4.1l1.3 1.4 1.3-1.4H67c.8 0 1.7.2 1.7 1.4.1 1.2-.8 1.4-1.7 1.4zm6.2-.2c.1.2.2.4.2.8v.9h-1v-.5c0-.3 0-.6-.2-.8-.1-.2-.4-.2-.8-.2h-1.1v1.6h-1V16h2.4c.5 0 .9 0 1.2.2.3.2.5.5.5 1 0 .7-.5 1-.7 1.2.2-.2.4 0 .5.1zm4.2-1.8H75v.8h2.3v.9H75v.9h2.4v.9H74v-4.3h3.4v.8zm2.6 3.5h-2v-.9h2c.2 0 .3 0 .4-.1s.1-.2.1-.3c0-.1-.1-.2-.1-.3-.1-.1-.2-.1-.4-.1-1 0-2.2 0-2.2-1.3 0-.6.4-1.3 1.5-1.3h2.1v.9h-1.9c-.2 0-.3 0-.4.1-.1 0-.1.1-.1.2 0 .2.1.3.2.3h1c.6 0 .9.1 1.2.3.2.2.3.5.3.9-.1 1.1-.7 1.6-1.7 1.6zm5.3-.5c-.3.3-.7.5-1.3.5h-2v-.9h2c.2 0 .3 0 .4-.1s.1-.2.1-.3c0-.1 0-.2-.1-.3-.1-.1-.2-.1-.4-.1-1 0-2.2 0-2.2-1.3 0-.6.4-1.3 1.5-1.3h2v.9h-1.8c-.2 0-.3 0-.4.1-.1 0-.1.1-.1.2 0 .2.1.3.2.3h1c.6 0 .9.1 1.2.3l.1.1c.2.2.3.5.3.9-.2.5-.3.8-.5 1zm-24.6-3l1.1 1.3-1.2 1.3h-2.5v-.9h2.2v-.9h-2.2v-.8h2.6zm2.5 1.3l1.6-1.7v3.5L63.2 18zm4.5-.7c0 .4-.2.6-.6.6h-1.3v-1.1h1.3c.3-.1.6.1.6.5zm4.6-.1c0 .2-.1.3-.2.4s-.3.1-.5.1h-1.2v-1h1.3c.2 0 .4 0 .5.1 0 .1.1.2.1.4zM108.3 19.4l2-11.5h3.1l-1.9 11.5zM122.7 8.2c-.6-.2-1.6-.5-2.8-.5-3.1 0-5.3 1.6-5.3 3.8 0 1.7 1.6 2.6 2.8 3.1 1.2.6 1.6.9 1.6 1.4 0 .8-1 1.1-1.9 1.1-1.3 0-1.9-.2-3-.6l-.4-.2-.4 2.6c.7.3 2.1.6 3.5.6 3.3 0 5.5-1.5 5.5-3.9 0-1.3-.8-2.3-2.6-3.1-1.1-.5-1.8-.9-1.8-1.4s.6-1 1.8-1c1 0 1.8.2 2.4.4l.3.1.3-2.4zM128.1 7.9c-.8 0-1.3.2-1.6 1l-4.7 10.5h3.3l.6-1.8h4l.4 1.8h3l-2.6-11.5h-2.4zm-1.5 7.4c.3-.7 1.3-3.2 1.3-3.2s.3-.7.4-1.1l.2 1s.6 2.7.7 3.3h-2.6zM102.6 15.8l-.3-1.6c-.6-1.8-2.4-3.8-4.4-4.8l2.8 10h3.3l5-11.5h-3.3l-3.1 7.9z"/><path fill="#747474" d="M94.5 7.9v.2c4 1 6.7 3.4 7.8 6.1l-1.1-5.3c-.2-.7-.8-1-1.5-1h-5.2zM161.8 21.7c2.2-2 3.5-4.8 3.5-8s-1.4-6-3.5-8c-1.9-1.7-4.4-2.8-7.2-2.8-5.8.1-10.6 4.9-10.6 10.9 0 5.9 4.8 10.7 10.7 10.7 2.7 0 5.2-1 7.1-2.8z"/><path fill="#464646" d="M169 3c-2.8 0-5.3 1.1-7.2 2.8l-1.1 1.1h2.2c.3.4.6.7.8 1.1h-3.8c-.2.4-.4.7-.6 1.1h5c.2.4.3.7.5 1.1h-5.9c-.1.4-.2.7-.3 1.1h6.5c.2.7.2 1.5.2 2.3 0 1.2-.2 2.3-.5 3.4h-5.9c.1.4.3.8.5 1.1h5c-.2.4-.4.8-.6 1.1H160c.2.4.5.8.8 1.1h2.2c-.3.4-.7.8-1.1 1.1 1.9 1.7 4.4 2.8 7.2 2.8 5.9 0 10.7-4.8 10.7-10.7-.2-5.7-5-10.5-10.8-10.5z"/><path fill="#fff" d="M153.3 16.5H152l.8-4.2-1.8 4.2h-1.2l-.3-4.2-.8 4.2h-1.2l1.1-5.5h2l.1 3.4 1.5-3.4h2.2zM168.1 16.4c-.4.1-.6.1-1 .1-.7 0-1-.3-1-1v-.4l.1-.4.1-.4.6-3.4h1.3l-.2 1h.7l-.2 1.1h-.7l-.3 1.8v.2c0 .2.1.3.5.3h.4l-.3 1.1zM172 12.1h-.4c-.4 0-.7.2-1.2.7l.1-.7h-1.2l-.8 4.4h1.3c.5-2.7.7-3.2 1.3-3.2h.4l.5-1.2zM162.9 13.4c0 .6.3.9 1 1.2.5.2.6.3.6.5 0 .3-.2.4-.8.4-.4 0-.8-.1-1.2-.2l-.2 1h1.4c1.4 0 2.1-.5 2.1-1.5 0-.6-.3-1-.9-1.2-.6-.2-.6-.3-.6-.5s.2-.4.7-.4c.3 0 .6 0 1 .1l.2-1c-.3 0-.9-.1-1.2-.1-1.6.2-2.1.9-2.1 1.7zM157.6 16.5h-1.1V16c-.3.4-.8.5-1.4.5-.7 0-1.2-.5-1.2-1.2 0-1.1.9-1.7 2.3-1.7h.5c0-.1.1-.2.1-.3 0-.3-.2-.4-.9-.4-.4 0-.8 0-1.1.1H154.5l.2-1c.7-.2 1.1-.2 1.6-.2 1.1 0 1.7.4 1.7 1.3 0 .2 0 .4-.1.9l-.3 1.6V16.5zm-.9-2h-.3c-.8 0-1.1.2-1.1.7 0 .3.2.5.5.5.4-.1.8-.6.9-1.2zM162 16.4c-.5.1-.9.2-1.4.2-1.5 0-2.3-.7-2.3-2 0-1.5 1-2.6 2.3-2.6 1.1 0 1.8.6 1.8 1.6 0 .3 0 .6-.2 1.1h-2.6v.1c0 .5.4.8 1.2.8.5 0 .9-.1 1.4-.3l-.2 1.1zm-.7-2.7v-.2c0-.4-.2-.6-.6-.6-.4 0-.7.3-.8.8h1.4zM176.1 14.4c-.2 1.5-1.2 2.1-2.6 2.1-1.5 0-2.1-.9-2.1-2 0-1.6 1-2.6 2.6-2.6 1.4 0 2.1.9 2.1 2 .1.3.1.3 0 .5zm-1.3-.5c0-.5-.2-.9-.7-.9-.7 0-1.1.8-1.1 1.5 0 .6.3 1 .8 1 .3 0 .9-.4 1-1.1v-.5z"/><path fill="#747474" d="M19.8 21.8c1.9 1.7 4.4 2.8 7.2 2.8 5.9 0 10.7-4.8 10.7-10.7S32.9 3.2 27 3.2c-2.8 0-5.3 1.1-7.2 2.8-2.2 2-3.5 4.8-3.5 8 0 3 1.4 5.8 3.5 7.8z"/><path fill="#464646" d="M23.3 12.7c0-.4-.1-.8-.2-1.1h-6.5c.1-.4.2-.8.3-1.1h5.9c-.1-.4-.3-.8-.5-1.1h-5c.2-.4.4-.8.6-1.1h3.8c-.2-.4-.5-.8-.8-1.1h-2.2c.3-.4.7-.8 1.1-1.1-1.9-1.7-4.4-2.8-7.2-2.8C6.8 3.1 2 7.9 2 13.8s4.8 10.7 10.7 10.7c2.8 0 5.3-1.1 7.2-2.8l1.1-1.1h-2.2c-.3-.4-.6-.7-.8-1.1h3.8c.2-.4.4-.7.6-1.1h-5c-.2-.4-.3-.7-.5-1.1h5.9c.1-.4.2-.7.3-1.1.1-.4.1-.8.2-1.1 0-.4.1-.8.1-1.1-.1-.5-.1-.9-.1-1.3z"/><path fill="#fff" d="M26.9 11.4l-.2 1.2c-.4-.2-.7-.3-1-.3-.9 0-1.5.8-1.5 2 0 .8.4 1.3 1.1 1.3.3 0 .6-.1 1-.3l-.3 1.3c-.4.1-.7.2-1 .2-1.2 0-2-.9-2-2.3 0-1.9 1.1-3.3 2.6-3.3.2 0 .4 0 .5.1l.5.1c.1-.1.2-.1.3 0zM23.2 12.2h-.1c-.4 0-.6.2-1 .7l.1-.7h-1l-.7 4.4h1.2c.4-2.7.5-3.2 1.1-3.2h.1c0-.4.1-.8.3-1.2zM16.5 16.6c-.3.1-.6.1-.8.1-.6 0-.9-.3-.9-1v-.4l.1-.4.1-.4.5-3h1.2l-.1.7h.4l-.2 1.1h-.6l-.2 1.9v.2c0 .2.1.3.4.3h.3l-.2.9zM12 13.6c0 .6.3.9.9 1.2.5.2.5.3.5.5 0 .3-.2.4-.7.4-.3 0-.7-.1-1-.2l-.2 1H12.7c1.2 0 1.8-.5 1.8-1.5 0-.6-.2-1-.8-1.2-.5-.2-.5-.3-.5-.5s.2-.4.6-.4c.2 0 .5 0 .8.1l.2-1c-.3 0-.8-.1-1-.1-1.3.2-1.8.9-1.8 1.7zM35.7 16.7h-1.1l.1-.4c-.3.3-.6.5-1.1.5-.8 0-1.4-.7-1.4-1.8 0-1.5.9-2.7 1.9-2.7.4 0 .8.2 1.1.6l.3-1.6h1.1l-.9 5.4zM34 15.6c.5 0 .9-.6.9-1.5 0-.6-.2-.9-.6-.9-.5 0-.9.6-.9 1.5 0 .6.2.9.6.9zM20 16.6c-.4.1-.8.2-1.2.2-1.3 0-2-.7-2-2 0-1.5.9-2.6 2-2.6 1 0 1.6.6 1.6 1.6 0 .3 0 .6-.1 1.1H18v.1c0 .5.3.8 1 .8.4 0 .8-.1 1.2-.3l-.2 1.1zm-.6-2.7v-.2c0-.4-.2-.6-.5-.6-.4 0-.6.3-.7.8h1.2zM7.7 16.7H6.5l.7-4.2-1.5 4.2h-.8l-.1-4.2-.7 4.2H3l.9-5.5h1.7v3.4l1.2-3.4h1.8zM10.5 14.7h-.3c-.7 0-1 .2-1 .7 0 .3.2.5.4.5.5-.1.9-.6.9-1.2zm.8 2h-1v-.5c-.3.4-.7.5-1.2.5-.6 0-1.1-.5-1.1-1.2 0-1.1.7-1.7 2-1.7h.5v-.3c0-.3-.2-.4-.7-.4-.3 0-.7 0-1 .1H8.5l.2-1c.6-.2 1-.2 1.4-.2 1 0 1.5.4 1.5 1.3 0 .2 0 .4-.1.9l-.2 1.6V16.7zM28.7 14.7h-.3c-.7 0-1 .2-1 .7 0 .3.2.5.4.5.6-.1.9-.6.9-1.2zm.9 2h-1v-.5c-.3.4-.7.5-1.2.5-.6 0-1.1-.5-1.1-1.2 0-1.1.7-1.7 2-1.7h.5v-.3c0-.3-.2-.4-.7-.4-.3 0-.7 0-1 .1H26.8l.2-1c.6-.2 1-.2 1.4-.2 1 0 1.5.4 1.5 1.3 0 .2 0 .4-.1.9l-.2 1.6V16.7zM32.7 12.2c-.5 0-.7.2-1.1.7l.1-.7h-1l-.7 4.5h1.2c.4-2.7.5-3.2 1.1-3.2h.1c0-.5.1-.9.3-1.3z"/><path fill="#747474" d="M267 11.2h-2.1c-.1 0-.3.1-.3.3l-.9 5.5c0 .1.1.2.2.2h1.1c.1 0 .2-.1.2-.2l.2-1.6c0-.1.1-.3.3-.3h.7c1.4 0 2.2-.7 2.4-2 .1-.6 0-1.1-.3-1.4-.2-.3-.8-.5-1.5-.5zm.3 2c-.1.8-.7.8-1.3.8h-.3l.2-1.4c0-.1.1-.2.2-.2h.1c.4 0 .8 0 .9.2.2.2.2.4.2.6z"/><path fill="#464646" d="M251.7 11.2h-2.1c-.1 0-.3.1-.3.3l-.9 5.5c0 .1.1.2.2.2h1c.1 0 .3-.1.3-.3l.2-1.5c0-.1.1-.3.3-.3h.7c1.4 0 2.2-.7 2.4-2 .1-.6 0-1.1-.3-1.4-.3-.3-.8-.5-1.5-.5zm.2 2c-.1.8-.7.8-1.3.8h-.3l.2-1.4c0-.1.1-.2.2-.2h.1c.4 0 .8 0 .9.2.2.2.3.4.2.6zM258.1 13.2h-1c-.1 0-.2.1-.2.2v.3l-.1-.1c-.2-.3-.7-.4-1.2-.4-1.1 0-2.1.9-2.3 2.1-.1.6 0 1.2.4 1.6.3.4.8.5 1.3.5.9 0 1.4-.6 1.4-.6v.3c0 .1.1.2.2.2h.9c.1 0 .3-.1.3-.3l.6-3.5c-.1-.2-.2-.3-.3-.3zm-1.4 2c-.1.6-.6 1-1.2 1-.3 0-.5-.1-.7-.3s-.2-.4-.2-.7c.1-.6.6-1 1.2-1 .3 0 .5.1.7.3.2.2.2.4.2.7z"/><path fill="#747474" d="M273.4 13.2h-1c-.1 0-.2.1-.2.2v.3l-.1-.1c-.2-.3-.7-.4-1.2-.4-1.1 0-2.1.9-2.3 2.1-.1.6 0 1.2.4 1.6.3.4.8.5 1.3.5.9 0 1.4-.6 1.4-.6v.3c0 .1.1.2.2.2h.9c.1 0 .3-.1.3-.3l.6-3.5c-.1-.2-.2-.3-.3-.3zm-1.4 2c-.1.6-.6 1-1.2 1-.3 0-.5-.1-.7-.3s-.2-.4-.2-.7c.1-.6.6-1 1.2-1 .3 0 .5.1.7.3.2.2.2.4.2.7z"/><path fill="#464646" d="M263.6 13.2h-1c-.1 0-.2 0-.2.1l-1.4 2.1-.6-2c0-.1-.2-.2-.3-.2h-1c-.1 0-.2.1-.2.2l1.1 3.3-1.1 1.5c-.1.1 0 .3.1.3h1c.1 0 .2 0 .2-.1l3.4-5c.2 0 .1-.2 0-.2z"/><path fill="#747474" d="M274.7 11.4l-.9 5.6c0 .1.1.2.2.2h.9c.1 0 .3-.1.3-.3l.9-5.5c0-.1-.1-.2-.2-.2h-1c-.2 0-.2.1-.2.2zM244.2 11.5c.1-.7 0-1.2-.4-1.7s-1.2-.7-2.2-.7h-2.9c-.2 0-.4.2-.4.4l-1.2 7.8c0 .2.1.3.2.3h1.8l-.1.8c0 .1.1.3.2.3h1.5c.2 0 .3-.1.4-.3v-.1l.3-1.8v-.1c0-.2.2-.3.4-.3h.2c1.5 0 2.6-.6 3-2.3.1-.7.1-1.3-.3-1.8-.2-.3-.4-.4-.5-.5"/><path fill="#464646" d="M244.2 11.5c.1-.7 0-1.2-.4-1.7s-1.2-.7-2.2-.7h-2.9c-.2 0-.4.2-.4.4l-1.2 7.8c0 .2.1.3.2.3h1.8l.5-2.9v.1c0-.2.2-.4.4-.4h.9c1.7 0 3-.7 3.4-2.7-.2-.1-.2-.1-.1-.2"/><path fill="#464646" d="M239.9 11.5c0-.1.1-.2.2-.3h2.5c.3 0 .5 0 .8.1h.5c.1 0 .2.1.3.1.1-.7 0-1.2-.4-1.7s-1.2-.7-2.2-.7h-2.9c-.2 0-.4.2-.4.4l-1.2 7.8c0 .2.1.3.2.3h1.8l.5-2.9.3-3.1zM211.8 9.9c1.6 2.4.9 5.6-1.5 7.2-2.4 1.6-5.6.9-7.2-1.5l1.5-1c1 1.6 3.1 2 4.7 1s2-3.1 1-4.7l1.5-1z"/><path fill="#747474" d="M215.3 7.7c-1.6-2.4-4.8-3.1-7.2-1.5s-3.1 4.8-1.5 7.2l1.5-1c-1-1.6-.6-3.6 1-4.7 1.6-1 3.6-.6 4.7 1l1.5-1z"/><path fill="#464646" d="M199.3 11.5c0-5.4 4.4-9.9 9.9-9.9S219 6 219 11.5s-4.4 9.9-9.9 9.9-9.8-4.5-9.8-9.9zm9.8 9.1c5.1 0 9.2-4.1 9.2-9.2s-4.1-9.2-9.2-9.2-9.2 4.1-9.2 9.2 4.2 9.2 9.2 9.2z"/><g fill="#464646"><path d="M210.3 23.4h.6l-.5 2.3h1.7l-.1.5h-2.3l.6-2.8zM203.2 25.4c.1.2.6.5 1.2.5.5 0 .7-.2.8-.4 0-.1.1-.3-.4-.4l-.8-.1c-.8-.1-.9-.4-.9-.8 0-.5.7-.9 1.4-.9.6 0 1.2.1 1.4.5l-.4.3c-.4-.3-.7-.3-1.1-.3-.3 0-.6.1-.7.4 0 .2 0 .3.4.3l.9.1c.4 0 .8.4.7.8 0 .5-.5 1.1-1.5 1-.8 0-1.3-.3-1.5-.7l.5-.3zM206.2 24.8c.1-.9.9-1.6 1.8-1.6s1.5.7 1.3 1.6c-.1.9-.9 1.6-1.8 1.6s-1.4-.7-1.3-1.6zm1.4 1c.6 0 1.1-.5 1.2-1 .1-.6-.3-1-.9-1s-1.1.5-1.2 1c0 .6.4 1 .9 1zM212.4 24.8c.1-.9.9-1.6 1.8-1.6s1.5.7 1.3 1.6c-.1.9-.9 1.6-1.8 1.6-.8 0-1.4-.7-1.3-1.6zm1.5 1c.6 0 1.1-.5 1.2-1 .1-.6-.3-1-.9-1-.6 0-1.1.5-1.2 1-.1.6.3 1 .9 1z"/></g></svg>