<?xml version="1.0" encoding="utf-8"?>
<!-- Generator: Adobe Illustrator 25.4.1, SVG Export Plug-In . SVG Version: 6.00 Build 0)  -->
<svg version="1.1" id="Layer_1" xmlns="http://www.w3.org/2000/svg" xmlns:xlink="http://www.w3.org/1999/xlink" x="0px" y="0px"
	 viewBox="0 0 100 25" style="enable-background:new 0 0 100 25;" xml:space="preserve">
<style type="text/css">
	.st0{fill:#1D1D1B;}
	.st1{fill:#FFFFFF;}
</style>
<g>
	<path class="st0" d="M8.2,3.7v2.4c0,0.6,0,1.2,0.7,1.2v0.3c-0.3,0-0.6,0-0.9,0c-0.3,0-0.6,0-0.9,0V7.3c0.6-0.1,0.7-0.4,0.7-0.9V3.2
		C7.5,2.9,7.4,2.7,7,2.7V2.4c0.2,0,0.5,0,0.7,0c0.3,0,0.6,0,0.9,0L11.7,6V3.9c0-0.6,0-1.2-0.7-1.2V2.4c0.3,0,0.6,0,0.9,0
		c0.3,0,0.6,0,0.9,0v0.3c-0.2,0-0.5,0.1-0.6,0.3c-0.1,0.2-0.1,0.7-0.1,1v3.7h-0.4L8.2,3.7z"/>
	<path class="st0" d="M16.2,3.8c0,0.9-0.8,1.6-1.7,1.6c-0.9,0-1.7-0.6-1.7-1.6c0-0.9,0.8-1.6,1.7-1.6C15.4,2.2,16.2,2.8,16.2,3.8
		 M13.8,3.8c0,0.5,0.1,1.3,0.8,1.3c0.6,0,0.6-0.9,0.6-1.3c0-0.5,0-1.3-0.7-1.3C13.9,2.5,13.8,3.3,13.8,3.8"/>
	<path class="st0" d="M14,7.5C14,7.3,14.2,7,14.4,7c0.3,0,0.5,0.2,0.5,0.5c0,0.3-0.2,0.5-0.5,0.5C14.2,8,14,7.8,14,7.5"/>
</g>
<g>
	<path class="st0" d="M29.6,16.5c0,3.9-3.3,6-6.9,6c-3.1,0-6.5-1.6-6.5-5.2c0-2.3,2.1-3.8,4-4.6c-1.9-1.1-3.3-2.8-3.3-5.2
		c0-3.5,3.1-5.4,6.3-5.4c2.6,0,5.9,1.4,5.9,4.5c0,2.1-1.5,3.3-3.2,4.2C28.1,12,29.6,13.9,29.6,16.5 M21.4,13.4c-1.3,1.1-2,2.5-2,4.2
		c0,2.3,1.6,3.8,3.8,3.8c1.9,0,3.5-1.2,3.5-3.2c0-2.7-2.5-3.6-4.6-4.5L21.4,13.4z M24.8,10.3c0.9-0.8,1.3-2.1,1.3-3.2
		c0-2.1-1.2-3.7-3.3-3.7c-1.5,0-2.9,1-2.9,2.7c0,2.2,2.5,3,4.1,3.8L24.8,10.3z"/>
	<path class="st0" d="M43.3,16.7c0,3.9-3.3,6-6.9,6c-3.1,0-6.5-1.6-6.5-5.2c0-2.3,2.1-3.8,4-4.6c-1.9-1.1-3.3-2.8-3.3-5.2
		c0-3.5,3.1-5.4,6.3-5.4c2.6,0,5.9,1.4,5.9,4.5c0,2.1-1.5,3.3-3.2,4.2C41.8,12.2,43.3,14,43.3,16.7 M35.1,13.5c-1.3,1.1-2,2.5-2,4.2
		c0,2.3,1.6,3.8,3.8,3.8c1.9,0,3.5-1.2,3.5-3.2c0-2.7-2.5-3.6-4.6-4.5L35.1,13.5z M38.5,10.4c0.9-0.8,1.3-2.1,1.3-3.2
		c0-2.1-1.2-3.7-3.3-3.7c-1.5,0-2.9,1-2.9,2.7c0,2.2,2.5,3,4.1,3.8L38.5,10.4z"/>
	<path d="M38.7,3.6c1,0.3,1.7,1.2,1.9,2c0.3,0.9,0.2,1.9-0.6,3c0.5-1.1,0.6-1.6,0.4-2.4C40.3,5.5,39.5,4,38.7,3.6"/>
	<path class="st1" d="M38.7,3.6c1,0.3,1.7,1.2,1.9,2c0.3,0.9,0.2,1.9-0.6,3c0.5-1.1,0.6-1.6,0.4-2.4C40.3,5.5,39.5,4,38.7,3.6z"/>
	<path d="M31.6,5.4c-1,2.8,1,6.2,4.2,7.2c5.6,1.8,6.2,4.7,4.8,7.4c0.5-2.8,1-4.6-4.9-6.9C33.2,12.1,29.6,9.4,31.6,5.4"/>
	<path class="st1" d="M31.6,5.4c-1,2.8,1,6.2,4.2,7.2c5.6,1.8,6.2,4.7,4.8,7.4c0.5-2.8,1-4.6-4.9-6.9C33.2,12.1,29.6,9.4,31.6,5.4z"
		/>
	<path d="M31.4,15c-0.6,1.5-0.7,2.4-0.4,3.7c0.4,1.6,1.3,2.3,2.6,3.1c-1.5-0.5-2.8-1.4-3.1-3C30.3,17.3,30.4,16.2,31.4,15"/>
	<path class="st1" d="M31.4,15c-0.6,1.5-0.7,2.4-0.4,3.7c0.4,1.6,1.3,2.3,2.6,3.1c-1.5-0.5-2.8-1.4-3.1-3
		C30.3,17.3,30.4,16.2,31.4,15z"/>
	<path d="M18,5.4c-1,2.8,1,6.2,4.1,7.2c5.7,1.8,6.2,4.7,4.8,7.4c0.5-2.8,1-4.6-4.9-6.9C19.6,12.1,16,9.4,18,5.4"/>
	<path class="st1" d="M18,5.4c-1,2.8,1,6.2,4.1,7.2c5.7,1.8,6.2,4.7,4.8,7.4c0.5-2.8,1-4.6-4.9-6.9C19.6,12.1,16,9.4,18,5.4z"/>
	<path d="M17.8,15c-0.6,1.5-0.7,2.4-0.4,3.7c0.4,1.6,1.3,2.3,2.6,3.1c-1.5-0.5-2.8-1.4-3.1-3C16.7,17.3,16.8,16.2,17.8,15"/>
	<path class="st1" d="M17.8,15c-0.6,1.5-0.7,2.4-0.4,3.7c0.4,1.6,1.3,2.3,2.6,3.1c-1.5-0.5-2.8-1.4-3.1-3
		C16.7,17.3,16.8,16.2,17.8,15z"/>
	<path class="st1" d="M25,3.6c1,0.3,1.7,1.2,1.9,2c0.3,1,0.2,1.9-0.6,3c0.5-1.1,0.6-1.6,0.4-2.4C26.7,5.4,25.8,4,25,3.6"/>
	<path class="st1" d="M25,3.6c1,0.3,1.7,1.2,1.9,2c0.3,1,0.2,1.9-0.6,3c0.5-1.1,0.6-1.6,0.4-2.4C26.7,5.4,25.8,4,25,3.6z"/>
</g>
<g>
	<path d="M48.9,2.3h1v6h3.1v0.9h-4.2V2.3z"/>
	<path d="M57.5,2.2c2.1,0,3.5,1.5,3.5,3.6s-1.4,3.6-3.5,3.6c-2.1,0-3.5-1.5-3.5-3.6C54,3.7,55.4,2.2,57.5,2.2z M57.5,3.1
		c-1.5,0-2.4,1.1-2.4,2.7c0,1.5,0.9,2.7,2.4,2.7c1.5,0,2.4-1.1,2.4-2.7C59.9,4.3,59,3.1,57.5,3.1z"/>
	<path d="M64.3,6.3l-2.7-4h1.2l2,3.1l2-3.1H68l-2.7,4v2.9h-1L64.3,6.3L64.3,6.3z"/>
	<path d="M73,7.8h-3.4L69,9.2h-1.1l2.8-6.9h1.3l2.8,6.9h-1.1L73,7.8z M69.9,6.9h2.8l-1.4-3.7L69.9,6.9z"/>
	<path d="M75.9,2.3h1v6h3.1v0.9h-4.2V2.3z"/>
	<path d="M82.3,3.2h-2.2V2.3h5.3v0.9h-2.1v6h-1V3.2z"/>
	<path d="M89,6.3l-2.7-4h1.2l2,3.1l2-3.1h1.2l-2.7,4v2.9h-1L89,6.3L89,6.3z"/>
</g>
<g>
	<path d="M48,16.9c0-3.4,2.5-5.7,5.7-5.7c2.2,0,3.5,1,4.4,2.3l-1.4,0.7c-0.6-0.9-1.7-1.6-3-1.6c-2.2,0-4,1.8-4,4.3
		c0,2.5,1.7,4.3,4,4.3c1.3,0,2.4-0.7,3-1.6l1.4,0.7c-0.9,1.3-2.2,2.3-4.4,2.3C50.6,22.7,48,20.3,48,16.9z"/>
	<path d="M61.1,11.4h1.7V21h5v1.5h-6.7V11.4z"/>
	<path d="M70.6,11.4h1.7v6.7c0,1.9,1,3.1,3,3.1c1.9,0,3-1.2,3-3.1v-6.7h1.7v6.7c0,2.8-1.5,4.6-4.7,4.6c-3.1,0-4.7-1.8-4.7-4.5
		L70.6,11.4L70.6,11.4z"/>
	<path d="M83.7,11.4h5.2c2,0,3.1,1.2,3.1,2.8c0,1.4-0.9,2.3-1.9,2.5c1.2,0.2,2.1,1.4,2.1,2.7c0,1.7-1.2,3-3.2,3h-5.3
		C83.7,22.5,83.7,11.4,83.7,11.4z M88.6,16.1c1.1,0,1.7-0.7,1.7-1.6s-0.6-1.6-1.7-1.6h-3.2v3.2L88.6,16.1L88.6,16.1z M88.7,21
		c1.2,0,1.9-0.7,1.9-1.7c0-0.9-0.6-1.7-1.9-1.7h-3.3V21L88.7,21L88.7,21z"/>
</g>
</svg>
