<?xml version="1.0" encoding="utf-8"?>
<!-- Generator: Adobe Illustrator 22.1.0, SVG Export Plug-In . SVG Version: 6.00 Build 0)  -->
<svg version="1.1" id="Layer_1" xmlns="http://www.w3.org/2000/svg" xmlns:xlink="http://www.w3.org/1999/xlink" x="0px" y="0px"
	 viewBox="0 0 209 33" style="enable-background:new 0 0 209 33;" xml:space="preserve">
<style type="text/css">
	.st0{fill:#111111;}
</style>
<g>
	<g>
		<path class="st0" d="M69.34409,24.29365h0.66081v6.27926h2.93436v0.62067h-3.59518V24.29365z"/>
		<path class="st0" d="M78.73226,27.75862c0-1.96253,1.522-3.54526,3.48487-3.54526c1.96288,0,3.48487,1.58273,3.48487,3.54526
			c0,1.95275-1.52199,3.53479-3.48487,3.53479C80.25426,31.29341,78.73226,29.71138,78.73226,27.75862z M85.0412,27.75862
			c0-1.60228-1.23191-2.9239-2.82407-2.9239s-2.82406,1.32162-2.82406,2.9239c0,1.60228,1.2319,2.91412,2.82406,2.91412
			S85.0412,29.3609,85.0412,27.75862z"/>
		<path class="st0" d="M97.37141,24.29365v6.89993h-0.68105l-3.53514-5.74796v5.74796h-0.6608v-6.89993h0.69118l3.52502,5.73818
			v-5.73818H97.37141z"/>
		<path class="st0" d="M104.65533,24.29365h2.61322c1.95276,0,3.08447,1.50244,3.08447,3.46497
			c0,1.95275-1.13171,3.43495-3.08447,3.43495h-2.61322V24.29365z M107.26855,30.57291c1.57226,0,2.42332-1.22178,2.42332-2.81429
			c0-1.60228-0.85106-2.84431-2.42332-2.84431h-1.95276v5.65859H107.26855z"/>
		<path class="st0" d="M116.67557,27.75862c0-1.96253,1.52199-3.54526,3.48522-3.54526c1.96252,0,3.48452,1.58273,3.48452,3.54526
			c0,1.95275-1.522,3.53479-3.48452,3.53479C118.19756,31.29341,116.67557,29.71138,116.67557,27.75862z M122.98415,27.75862
			c0-1.60228-1.23156-2.9239-2.82336-2.9239c-1.59251,0-2.82407,1.32162-2.82407,2.9239c0,1.60228,1.23156,2.91412,2.82407,2.91412
			C121.75259,30.67274,122.98415,29.3609,122.98415,27.75862z"/>
		<path class="st0" d="M135.31438,24.29365v6.89993h-0.68071l-3.53479-5.74796v5.74796h-0.66116v-6.89993h0.69118l3.52502,5.73818
			v-5.73818H135.31438z"/>
	</g>
	<path class="st0" d="M12.7617,0.97218c-7.67678,0-12.1343,5.5499-12.1343,13.22668c0,7.58098,4.07146,12.69621,11.78969,12.69621
		c3.30507,0,5.88521-0.87578,8.36739-2.83822l0.17157-0.13656l0.68132,2.06468l0.50545-0.00641V17.8964l-0.54404-0.00286
		c-1.07166,4.22874-2.86325,8.11217-8.49535,8.11217c-2.73956,0-8.34451-1.14887-8.34451-11.7847
		c0-2.94404-0.11583-12.54822,8.24871-12.54822c4.31237,0,7.4237,2.72025,8.14791,7.10771l0.71276,0.00214l-0.19802-7.24783
		l-0.72995-0.02716l-0.2881,1.93886l-0.19804-0.12368C17.63314,1.56557,15.69215,0.97218,12.7617,0.97218"/>
	<path class="st0" d="M36.26909,17.15511H24.06187l9.11375-15.06258h-3.45018c-2.57013,0-3.94991,0.21449-4.37815,3.16494h-0.64272
		l0.23735-3.80764h11.32716l-9.06586,15.06258h4.02139c3.11705,0,4.11579-0.45182,4.75849-3.68825h0.64272L36.26909,17.15511z"/>
	<path class="st0" d="M40.40975,6.06646c0-0.76137,0-2.52222-0.23807-3.16492c-0.30957-0.80858-1.2847-0.80858-2.04609-0.80858
		v-0.6427h11.82613v3.59315h-0.54762c-0.45184-2.78387-1.68933-2.95045-4.21157-2.95045h-1.71364
		c-0.35676,0-0.52336-0.02358-0.59483,0.09508c-0.04717,0.09508-0.02361,0.35674-0.02361,0.88008v5.63996
		c3.26002,0.14227,3.73547-1.21393,3.87846-2.92687h0.54762c-0.02361,1.07096-0.04791,2.16548-0.09508,3.23571
		c0.04717,0.97585,0.07148,1.97532,0.09508,2.95117h-0.54762c-0.33316-2.49863-1.5943-2.61802-3.87846-2.61802v3.90272
		c0,0.7135,0,1.83235,0.42823,2.40285c0.61914,0.83358,2.094,0.88077,3.0463,0.85719
		c2.47433-0.04791,4.09218-0.35676,4.40173-3.18854h0.54762l-0.21447,3.83053H38.12558v-0.5469c0.76139,0,1.73652,0,2.04609-0.8093
		c0.23807-0.6427,0.23807-2.40283,0.23807-3.16494V6.06646z"/>
	<path class="st0" d="M66.91798,1.5218h0.35671l0.19091,4.68771h-0.54762c-0.40467-2.6416-2.2606-4.49753-5.02087-4.49753
		c-4.25878,0-5.54418,4.21229-5.54418,7.78116c0,3.59317,1.37978,7.4244,5.59205,7.4244c3.3308,0,4.54472-2.37994,5.25894-5.23533
		h0.42754v5.21103h-0.30885l-0.57122-1.21321c-1.59425,1.26112-3.21211,1.78444-5.2582,1.78444
		c-4.83071,0-8.11503-3.11705-8.11503-7.97132c0-4.83071,3.49809-8.3288,8.3288-8.3288c1.95097,0,3.1885,0.45256,4.82996,1.47561
		L66.91798,1.5218z"/>
	<path class="st0" d="M73.96194,12.68173c0,0.76139,0,2.52224,0.23803,3.16494c0.30959,0.80858,1.28471,0.80858,2.0461,0.80858
		v0.54762c-1.14172-0.02431-2.30773-0.07147-3.45018-0.09508c-1.18963,0.02361-2.40281,0.07078-3.56887,0.09508v-0.54762
		c0.76139,0,1.73654,0,2.04609-0.80858c0.23808-0.6427,0.23808-2.40355,0.23808-3.16494v-6.7102
		c0-0.76211,0-2.52222-0.23808-3.16494c-0.30955-0.80928-1.2847-0.80928-2.04609-0.80928V1.45039
		c1.11815,0.02361,2.26056,0.0715,3.40231,0.09508c1.21393-0.02358,2.40355-0.07147,3.61674-0.09508v0.54692
		c-0.76139,0-1.7365,0-2.0461,0.80928c-0.23803,0.64272-0.23803,2.40283-0.23803,3.16494v2.76029h8.49461V5.97153
		c0-0.76211,0-2.52222-0.23733-3.16494c-0.30959-0.80928-1.28545-0.80928-2.04684-0.80928V1.45039
		c1.16606,0.02361,2.30847,0.0715,3.47453,0.09508c1.18962-0.02358,2.35564-0.07147,3.54526-0.09508v0.54692
		c-0.76139,0-1.73654,0-2.04609,0.80928c-0.23808,0.64272-0.23808,2.40283-0.23808,3.16494v6.7102
		c0,0.76139,0,2.52224,0.23808,3.16494c0.30955,0.80858,1.2847,0.80858,2.04609,0.80858v0.54762
		c-1.14171-0.02431-2.30847-0.07147-3.45018-0.09508c-1.18962,0.02361-2.37999,0.07078-3.56961,0.09508v-0.54762
		c0.76139,0,1.73724,0,2.04684-0.80858c0.23733-0.6427,0.23733-2.40355,0.23733-3.16494V9.49321h-8.49461V12.68173z"/>
	<path class="st0" d="M115.5387,12.3959h0.54762c0.4754,2.40357,1.76011,4.42606,4.49681,4.42606
		c1.85593,0,3.40302-1.04663,3.40302-2.97475c0-2.16478-1.88024-3.02125-3.61748-3.71186
		c-2.16478-0.83216-4.47325-1.9746-4.47325-4.68771c0-2.71238,2.11761-4.28306,4.71132-4.28306
		c1.30901,0,2.52219,0.45184,3.59318,1.21393l0.54762-0.92866h0.26163l0.11869,4.11721h-0.54692
		c-0.54762-1.97532-1.66573-3.75975-3.9742-3.75975c-1.52277,0-2.78391,0.97585-2.78391,2.52222
		c0,1.88023,1.68938,2.52224,3.16494,3.14135c2.47432,1.02305,5.23463,2.26056,5.23463,5.37761
		c0,3.11703-2.90257,4.61622-5.68643,4.61622c-1.6186,0-2.8797-0.47615-4.16441-1.42842l-0.57122,1.00018h-0.26164V12.3959z"/>
	<path class="st0" d="M132.19534,9.16005c0.45253,0.02361,0.92863,0.09508,1.38048,0.09508
		c2.45071,0,3.66394-1.04663,3.66394-3.61676c0-2.30847-1.09453-3.49809-3.40227-3.49809c-0.28598,0-1.23753,0-1.4749,0.14299
		c-0.19086,0.11867-0.16725,0.38104-0.16725,0.97513V9.16005z M132.19534,12.68173c0,0.76139,0,2.52224,0.23802,3.16494
		c0.33316,0.92797,1.452,0.76139,2.28416,0.80858v0.54762c-1.23679-0.02431-2.47432-0.07147-3.71181-0.09508
		c-1.16606,0.02361-2.30847,0.07078-3.4981,0.09508v-0.54762c0.76139,0,1.76081,0,2.02248-0.80858
		c0.21446-0.6427,0.21446-2.40355,0.21446-3.16494V5.99512c0-0.78569,0-2.5458-0.21446-3.18852
		c-0.28525-0.83288-1.26109-0.80928-2.02248-0.80928V1.45039c1.21392,0.02361,2.40356,0.0715,3.59318,0.09508
		c1.14241-0.02358,2.26056-0.07147,3.40297-0.09508c2.56944,0.09508,5.4727,1.09454,5.4727,4.11649
		c0,3.47451-3.3551,4.30667-6.18689,4.30667c-0.42822,0-1.49916-0.07078-1.59424-0.07078V12.68173z"/>
	<path class="st0" d="M143.54578,6.06646c0-0.76137,0-2.52222-0.23807-3.16492c-0.30885-0.80858-1.28471-0.80858-2.0461-0.80858
		v-0.6427h11.82614v3.59315h-0.54692c-0.45253-2.78387-1.68933-2.95045-4.21231-2.95045h-1.71294
		c-0.35745,0-0.52332-0.02358-0.59479,0.09508c-0.04791,0.09508-0.02431,0.35674-0.02431,0.88008v5.63996
		c3.26003,0.14227,3.73618-1.21393,3.87912-2.92687h0.54692c-0.02356,1.07096-0.04716,2.16548-0.09508,3.23571
		c0.04791,0.97585,0.07152,1.97532,0.09508,2.95117h-0.54692c-0.33316-2.49863-1.59425-2.61802-3.87912-2.61802v3.90272
		c0,0.7135,0,1.83235,0.42824,2.40285c0.61909,0.83358,2.0947,0.88077,3.04625,0.85719
		c2.47507-0.04791,4.09288-0.35676,4.40173-3.18854h0.54767l-0.21451,3.83053h-12.94426v-0.5469c0.76138,0,1.73724,0,2.0461-0.8093
		c0.23807-0.6427,0.23807-2.40283,0.23807-3.16494V6.06646z"/>
	<path class="st0" d="M165.33473,10.68298l-2.61732-6.71022l-2.64157,6.71022H165.33473z M159.55252,12.03916
		c-0.35677,0.90438-1.14246,2.66523-1.14246,3.59317c0,1.02305,1.21393,0.95157,1.92815,1.02305v0.54764
		c-0.88083-0.02431-1.73729-0.0715-2.61806-0.0958c-0.83287,0.0243-1.64143,0.0715-2.47433,0.0958v-0.54764
		c1.2847-0.14297,1.80801-0.52332,2.28416-1.68933c0.66631-1.52278,1.30901-3.02197,1.97462-4.54472l3.64104-9.35184h0.8093
		l4.8064,12.08783c0.28595,0.61912,0.80856,2.0704,1.23753,2.61802c0.52332,0.68989,1.2375,0.78497,2.0461,0.88005v0.54764
		c-1.11815-0.02431-2.2606-0.0715-3.37871-0.0958c-1.14246,0.0243-2.30847,0.0715-3.45018,0.0958v-0.54764
		c0.66626-0.02358,1.83232,0.02361,1.83232-0.90436c0-0.59481-0.26237-1.30829-0.47614-1.85593l-0.92795-2.45072h-5.87733
		L159.55252,12.03916z"/>
	<path class="st0" d="M177.64531,11.27771v2.8082c0,2.25986,0.07147,2.37924,2.35564,2.56941v0.54764
		c-1.16606-0.02431-2.30777-0.0715-3.47379-0.0958c-1.21323,0.02431-2.40355,0.0715-3.61678,0.0958v-0.54764
		c0.76138,0,1.73654,0,2.0461-0.80856c0.23807-0.64272,0.23807-2.40355,0.23807-3.16494V5.9709c0-0.76139,0-2.52152-0.23807-3.16424
		c-0.30956-0.80928-1.28471-0.80928-2.0461-0.80928v-0.5469c1.14175,0.02358,2.26056,0.07147,3.40231,0.09508
		c1.23749-0.02361,2.45142-0.0715,3.68825-0.09508v0.5469c-2.28416,0.19088-2.35564,0.33315-2.35564,2.57013v5.80584
		c1.14241-1.18962,5.73505-6.04391,5.73505-7.4237c0-1.00016-1.07094-0.88077-1.78516-0.95227v-0.5469
		c0.95229,0.02358,1.88023,0.07147,2.83179,0.09508c0.83286-0.02361,1.64217-0.0715,2.47507-0.09508v0.5469
		c-1.30905,0.0243-1.61861,0.33315-2.40355,1.33261l-3.80768,4.7113l3.30792,3.80764
		c0.28525,0.35674,2.78387,3.64036,3.90273,4.44964c0.47545,0.35674,0.83217,0.30957,1.40413,0.35674v0.54764
		c-1.26114-0.02431-2.52298-0.0715-3.78407-0.0958c-1.21323,0.02431-2.40355,0.0715-3.61678,0.0958v-0.54764
		c0.42822,0,1.99892,0.0715,1.99892-0.71348c0-0.50045-1.49918-2.26056-1.8795-2.71312l-2.90329-3.49737L177.64531,11.27771z"/>
	<path class="st0" d="M189.09201,25.92556h18.96315l0.31744-5.67858h-0.49902c-0.5412,4.40533-2.66666,4.77422-6.69522,4.85215
		l-0.16512,0.00358c-1.53207,0.04073-3.85127,0.10152-4.85217-1.24611c-0.71419-0.95155-0.71419-2.73241-0.71419-3.9106v-6.3549
		h0.18803c3.61891,0,4.96078,0.19446,5.54131,4.13652h0.5083c-0.03505-1.47201-0.07292-2.99051-0.14513-4.46537
		c0.0722-1.6436,0.11008-3.31506,0.14586-4.93578h-0.50044c-0.23022,2.49577-0.2345,4.85643-5.55775,4.62551l-0.18018-0.00788
		v-9.0923c0-0.23236-0.00287-0.42538-0.00502-0.58696c-0.00641-0.45468-0.00929-0.66201,0.06506-0.81144
		c0.1573-0.2638,0.42252-0.26236,0.86865-0.25592l0.23947,0.00142h2.70741c3.94135,0,5.67784,0.20661,6.43709,4.58548h0.51616
		l-0.04716-5.39833h-17.17729l-0.00357,0.58338c1.19176,0.00356,2.75668,0.22018,3.26573,1.55208
		c0.38892,1.04879,0.38892,3.86554,0.38892,5.06804v10.37917c0,1.20322-0.37605,4.01999-0.76427,5.06662
		c-0.509,1.33046-1.65503,1.39765-2.84605,1.40123V25.92556z"/>
	<path class="st0" d="M98.60188,6.70905c1.78371-0.97158,2.67522-2.02179,2.67522-3.15065
		c0-0.33171-0.05145-0.63698-0.15369-0.91581c-0.10298-0.27739-0.25024-0.51616-0.44185-0.71564
		c-0.19156-0.19946-0.42108-0.35244-0.68843-0.46039c-0.2674-0.10795-0.56194-0.16228-0.88296-0.16228
		c-0.65055,0-1.16815,0.19946-1.55135,0.59767c-0.3832,0.39034-0.57481,0.88435-0.57481,1.48202
		C96.98402,4.19755,97.52309,5.30566,98.60188,6.70905 M97.26429,8.2161c-0.92725,0.53974-1.64504,1.16244-2.15334,1.86806
		c-0.50831,0.7135-0.76208,1.39839-0.76208,2.05469c0,1.02946,0.4411,1.99676,1.32401,2.90112
		c0.88291,0.90508,1.88168,1.35764,2.99621,1.35764c1.23038,0,2.3764-0.56837,3.43735-1.7058
		c-0.94514-1.33689-1.81875-2.54296-2.62159-3.61748C98.68269,9.99909,97.94203,9.0461,97.26429,8.2161 M103.0294,7.03289h5.7243
		v0.57267c-0.71278,0.18301-1.34618,0.50686-1.89882,0.97156c-0.52615,0.44826-1.07954,1.32404-1.65862,2.62733
		c-0.48182,1.07094-0.92293,1.85163-1.32402,2.34135c0.95369,1.27827,1.70295,2.08399,2.24699,2.4157
		c0.55264,0.34101,1.13242,0.51044,1.73869,0.51044c0.83788,0,1.4849-0.36889,1.93958-1.10811h0.61482
		c-0.18732,0.6806-0.58838,1.23324-1.20393,1.65645c-0.60622,0.41538-1.31041,0.62269-2.11329,0.62269
		c-1.73869,0-3.26788-0.81358-4.58762-2.44073c-1.55996,1.62715-3.21857,2.44073-4.9751,2.44073
		c-0.63341,0.0086-1.25756-0.09936-1.87308-0.32386c-0.61482-0.22448-1.16319-0.54118-1.64504-0.95297
		c-0.48112-0.41037-0.86934-0.90008-1.16318-1.46917c-0.29454-0.56835-0.43321-1.19318-0.41463-1.8745
		c0-1.03736,0.30239-1.91311,0.90936-2.62733c0.60627-0.70562,1.77874-1.60213,3.51743-2.68951
		c-1.0431-1.35334-1.56497-2.57798-1.56497-3.67396c0-0.85503,0.35676-1.62285,1.07024-2.30417
		c0.70419-0.6806,1.60071-1.02091,2.6888-1.02091c0.97157,0,1.84092,0.25308,2.60802,0.75997
		c0.77566,0.51474,1.16319,1.17889,1.16319,1.99246c0,1.27827-1.284,2.51938-3.85197,3.72329
		c0.80284,1.00446,1.57566,1.98819,2.3206,2.95117c0.74424,0.963,1.46915,1.91383,2.17333,2.85181
		c0.5083-0.65557,0.9101-1.34047,1.20393-2.05467c0.29453-0.70562,0.4418-1.26184,0.4418-1.66863
		c0-0.95441-0.69559-1.50705-2.0868-1.65645V7.03289z"/>
</g>
</svg>
